<svg width="24" height="24" viewBox="0 0 24 24" fill="none" xmlns="http://www.w3.org/2000/svg">
<path d="M18.1523 21H5.84766C4.27734 21 3 19.7766 3 18.2742V16.5C3 15.8789 3.50391 15.375 4.125 15.375C4.74609 15.375 5.25 15.8789 5.25 16.5V18.2742C5.25 18.532 5.52422 18.75 5.84766 18.75H18.1523C18.4758 18.75 18.75 18.532 18.75 18.2742V16.5C18.75 15.8789 19.2539 15.375 19.875 15.375C20.4961 15.375 21 15.8789 21 16.5V18.2742C21 19.7766 19.7227 21 18.1523 21ZM12 3C11.3789 3 10.875 3.50391 10.875 4.125V14.25C10.875 14.8711 11.3789 15.375 12 15.375C12.6211 15.375 13.125 14.8711 13.125 14.25V4.125C13.125 3.50391 12.6211 3 12 3Z" fill="white"/>
<path d="M14.7258 11.1071C14.4375 11.1071 14.1492 11.2172 13.9313 11.4375L12 13.3664L10.0711 11.4375C9.63048 10.9969 8.92032 10.9969 8.4797 11.4375C8.03907 11.8781 8.03907 12.5883 8.4797 13.0289L11.2055 15.7547C11.6461 16.1953 12.3563 16.1953 12.7969 15.7547L15.5227 13.0289C15.9633 12.5883 15.9633 11.8781 15.5227 11.4375C15.3 11.2172 15.0117 11.1071 14.7258 11.1071Z" fill="white"/>
</svg>
