<svg width="26" height="26" viewBox="0 0 26 26" fill="none" xmlns="http://www.w3.org/2000/svg">
<path d="M23.9929 22.2171L19.7423 17.969C20.9764 16.3192 21.7117 14.2796 21.7117 12.0582C21.7117 6.58899 17.274 2.15649 11.8022 2.15649C6.33304 2.15909 1.89795 6.59159 1.89795 12.0608C1.89795 17.5299 6.33304 21.9624 11.8048 21.9624C14.2887 21.9624 16.5517 21.0427 18.2899 19.5357L22.4807 23.7266C22.6886 23.9344 22.9614 24.041 23.2368 24.041C23.5122 24.041 23.7824 23.9344 23.9929 23.7266C24.4086 23.3083 24.4086 22.6328 23.9929 22.2171ZM11.8048 19.8293C7.51782 19.8293 4.02846 16.3452 4.02846 12.0582C4.02846 7.77116 7.51782 4.2896 11.8048 4.2896C16.0918 4.2896 19.5812 7.77636 19.5812 12.0608C19.5812 16.3452 16.0918 19.8293 11.8048 19.8293Z" fill="white"/>
</svg>
